<svg width="193" height="192" viewBox="0 0 193 192" fill="none" xmlns="http://www.w3.org/2000/svg">
<rect x="0.961548" width="191.077" height="191.077" rx="95.5385" fill="#523914"/>
<rect x="1.3077" y="0.346154" width="190.385" height="190.385" rx="95.1923" stroke="#F7931A" stroke-opacity="0.44" stroke-width="0.692308"/>
<path d="M41.6588 132.418C41.5347 129.501 41.4416 126.243 41.3796 122.643C41.3796 118.982 41.3485 115.413 41.2865 111.938C35.2047 111.876 29.4331 111.783 23.9719 111.659C18.5727 111.535 13.8562 111.379 9.82235 111.193C9.82235 108.525 9.85338 105.298 9.91544 101.512C9.9775 97.7264 10.0706 93.5994 10.1947 89.1312C10.3188 84.6629 10.474 80.0705 10.6602 75.354C10.8463 70.6375 11.0325 66.014 11.2187 61.4837C13.8872 61.4837 16.8351 61.5768 20.0622 61.763C23.2892 61.8871 26.0509 62.1043 28.3471 62.4146C27.9747 65.5796 27.6024 69.086 27.23 72.9337C26.8577 76.7193 26.4853 80.598 26.113 84.5698C25.8027 88.4795 25.5234 92.2031 25.2752 95.7405C25.0269 99.2779 24.8407 102.35 24.7166 104.956C27.4472 104.956 30.2089 104.956 33.0016 104.956C35.7942 104.894 38.5559 104.801 41.2865 104.677C41.2865 104.119 41.2865 103.56 41.2865 103.001C41.2865 98.347 41.3175 93.5994 41.3796 88.7588C41.4416 83.8561 41.5037 79.1086 41.5658 74.5162C41.6899 69.8617 41.814 65.6106 41.9381 61.763C45.9099 61.763 49.2301 61.794 51.8986 61.8561C54.6293 61.9181 56.7703 62.0112 58.3218 62.1353C58.1356 65.4865 57.9184 69.4894 57.6702 74.1438C57.484 78.7983 57.2668 83.701 57.0185 88.8519C56.7703 94.0028 56.5531 99.0607 56.3669 104.025C59.9043 103.777 62.8832 103.529 65.3035 103.281L65.6758 112.124C62.5108 112.124 59.3148 112.124 56.0877 112.124C55.9015 116.779 55.7463 120.875 55.6222 124.412C55.5602 127.949 55.5291 130.494 55.5291 132.045C54.4741 132.107 53.1088 132.169 51.4332 132.231C49.7576 132.294 48.0199 132.325 46.2202 132.325C44.4825 132.387 42.9621 132.418 41.6588 132.418ZM95.1524 132.697C90.1256 132.697 85.6573 131.238 81.7475 128.322C77.8998 125.343 74.8589 121.278 72.6248 116.127C70.4527 110.914 69.3667 104.956 69.3667 98.2539C69.3667 92.9168 70.0493 87.9831 71.4146 83.4527C72.842 78.9224 74.8279 74.9816 77.3723 71.6304C79.9168 68.2792 82.8956 65.6727 86.3089 63.8109C89.7222 61.9491 93.4457 61.0182 97.4796 61.0182C102.568 61.0182 107.037 62.4766 110.884 65.3934C114.794 68.3102 117.835 72.3441 120.007 77.495C122.241 82.646 123.358 88.6037 123.358 95.3681C123.358 100.705 122.645 105.639 121.217 110.169C119.79 114.7 117.804 118.671 115.26 122.085C112.715 125.436 109.736 128.042 106.323 129.904C102.91 131.766 99.1862 132.697 95.1524 132.697ZM99.1552 124.877C101.017 124.877 102.662 123.947 104.089 122.085C105.578 120.161 106.757 117.554 107.626 114.265C108.495 110.976 108.93 107.253 108.93 103.095C108.93 98.7504 108.464 94.5614 107.533 90.5275C106.664 86.4316 105.485 82.7701 103.996 79.543C102.506 76.2538 100.8 73.6473 98.8759 71.7235C97.0142 69.7997 95.0903 68.8377 93.1044 68.8377C90.3117 68.8377 88.0466 70.7616 86.3089 74.6093C84.6333 78.3949 83.7955 83.3907 83.7955 89.5966C83.7955 94.0649 84.2299 98.4091 85.0987 102.629C85.9676 106.787 87.1157 110.542 88.543 113.893C90.0325 117.244 91.677 119.913 93.4768 121.899C95.3385 123.884 97.2314 124.877 99.1552 124.877ZM160.747 132.418C160.623 129.501 160.53 126.243 160.468 122.643C160.468 118.982 160.437 115.413 160.375 111.938C154.293 111.876 148.522 111.783 143.061 111.659C137.661 111.535 132.945 111.379 128.911 111.193C128.911 108.525 128.942 105.298 129.004 101.512C129.066 97.7264 129.159 93.5994 129.283 89.1312C129.407 84.6629 129.563 80.0705 129.749 75.354C129.935 70.6375 130.121 66.014 130.307 61.4837C132.976 61.4837 135.924 61.5768 139.151 61.763C142.378 61.8871 145.14 62.1043 147.436 62.4146C147.063 65.5796 146.691 69.086 146.319 72.9337C145.946 76.7193 145.574 80.598 145.202 84.5698C144.891 88.4795 144.612 92.2031 144.364 95.7405C144.116 99.2779 143.929 102.35 143.805 104.956C146.536 104.956 149.298 104.956 152.09 104.956C154.883 104.894 157.645 104.801 160.375 104.677C160.375 104.119 160.375 103.56 160.375 103.001C160.375 98.347 160.406 93.5994 160.468 88.7588C160.53 83.8561 160.592 79.1086 160.654 74.5162C160.779 69.8617 160.903 65.6106 161.027 61.763C164.999 61.763 168.319 61.794 170.987 61.8561C173.718 61.9181 175.859 62.0112 177.41 62.1353C177.224 65.4865 177.007 69.4894 176.759 74.1438C176.573 78.7983 176.355 83.701 176.107 88.8519C175.859 94.0028 175.642 99.0607 175.456 104.025C178.993 103.777 181.972 103.529 184.392 103.281L184.764 112.124C181.599 112.124 178.403 112.124 175.176 112.124C174.99 116.779 174.835 120.875 174.711 124.412C174.649 127.949 174.618 130.494 174.618 132.045C173.563 132.107 172.197 132.169 170.522 132.231C168.846 132.294 167.109 132.325 165.309 132.325C163.571 132.387 162.051 132.418 160.747 132.418Z" fill="#AB691B"/>
<path d="M36.1204 132.418C35.9963 129.501 35.9032 126.243 35.8411 122.643C35.8411 118.982 35.8101 115.413 35.748 111.938C29.6662 111.876 23.8947 111.783 18.4335 111.659C13.0343 111.535 8.31776 111.379 4.2839 111.193C4.2839 108.525 4.31493 105.298 4.37699 101.512C4.43905 97.7264 4.53214 93.5994 4.65626 89.1312C4.78038 84.6629 4.93552 80.0705 5.1217 75.354C5.30788 70.6375 5.49406 66.014 5.68024 61.4837C8.34879 61.4837 11.2966 61.5768 14.5237 61.763C17.7508 61.8871 20.5124 62.1043 22.8086 62.4146C22.4363 65.5796 22.0639 69.086 21.6916 72.9337C21.3192 76.7193 20.9469 80.598 20.5745 84.5698C20.2642 88.4795 19.9849 92.2031 19.7367 95.7405C19.4885 99.2779 19.3023 102.35 19.1782 104.956C21.9088 104.956 24.6704 104.956 27.4631 104.956C30.2558 104.894 33.0174 104.801 35.748 104.677C35.748 104.119 35.748 103.56 35.748 103.001C35.748 98.347 35.7791 93.5994 35.8411 88.7588C35.9032 83.8561 35.9652 79.1086 36.0273 74.5162C36.1514 69.8617 36.2755 65.6106 36.3997 61.763C40.3715 61.763 43.6916 61.794 46.3602 61.8561C49.0908 61.9181 51.2319 62.0112 52.7833 62.1353C52.5972 65.4865 52.38 69.4894 52.1317 74.1438C51.9455 78.7983 51.7283 83.701 51.4801 88.8519C51.2319 94.0028 51.0147 99.0607 50.8285 104.025C54.3659 103.777 57.3447 103.529 59.765 103.281L60.1374 112.124C56.9724 112.124 53.7763 112.124 50.5492 112.124C50.363 116.779 50.2079 120.875 50.0838 124.412C50.0217 127.949 49.9907 130.494 49.9907 132.045C48.9357 132.107 47.5704 132.169 45.8947 132.231C44.2191 132.294 42.4815 132.325 40.6818 132.325C38.9441 132.387 37.4236 132.418 36.1204 132.418ZM89.6139 132.697C84.5871 132.697 80.1188 131.238 76.2091 128.322C72.3614 125.343 69.3205 121.278 67.0863 116.127C64.9143 110.914 63.8282 104.956 63.8282 98.2539C63.8282 92.9168 64.5109 87.9831 65.8762 83.4527C67.3036 78.9224 69.2895 74.9816 71.8339 71.6304C74.3783 68.2792 77.3572 65.6727 80.7704 63.8109C84.1837 61.9491 87.9073 61.0182 91.9411 61.0182C97.03 61.0182 101.498 62.4766 105.346 65.3934C109.256 68.3102 112.297 72.3441 114.469 77.495C116.703 82.646 117.82 88.6037 117.82 95.3681C117.82 100.705 117.106 105.639 115.679 110.169C114.252 114.7 112.266 118.671 109.721 122.085C107.177 125.436 104.198 128.042 100.785 129.904C97.3713 131.766 93.6478 132.697 89.6139 132.697ZM93.6168 124.877C95.4785 124.877 97.1231 123.947 98.5505 122.085C100.04 120.161 101.219 117.554 102.088 114.265C102.957 110.976 103.391 107.253 103.391 103.095C103.391 98.7504 102.926 94.5614 101.995 90.5275C101.126 86.4316 99.9468 82.7701 98.4574 79.543C96.968 76.2538 95.2613 73.6473 93.3375 71.7235C91.4757 69.7997 89.5519 68.8377 87.566 68.8377C84.7733 68.8377 82.5081 70.7616 80.7704 74.6093C79.0948 78.3949 78.257 83.3907 78.257 89.5966C78.257 94.0649 78.6915 98.4091 79.5603 102.629C80.4291 106.787 81.5772 110.542 83.0046 113.893C84.494 117.244 86.1386 119.913 87.9383 121.899C89.8001 123.884 91.6929 124.877 93.6168 124.877ZM155.209 132.418C155.085 129.501 154.992 126.243 154.93 122.643C154.93 118.982 154.899 115.413 154.837 111.938C148.755 111.876 142.983 111.783 137.522 111.659C132.123 111.535 127.406 111.379 123.373 111.193C123.373 108.525 123.404 105.298 123.466 101.512C123.528 97.7264 123.621 93.5994 123.745 89.1312C123.869 84.6629 124.024 80.0705 124.21 75.354C124.397 70.6375 124.583 66.014 124.769 61.4837C127.437 61.4837 130.385 61.5768 133.612 61.763C136.839 61.8871 139.601 62.1043 141.897 62.4146C141.525 65.5796 141.153 69.086 140.78 72.9337C140.408 76.7193 140.036 80.598 139.663 84.5698C139.353 88.4795 139.074 92.2031 138.825 95.7405C138.577 99.2779 138.391 102.35 138.267 104.956C140.997 104.956 143.759 104.956 146.552 104.956C149.344 104.894 152.106 104.801 154.837 104.677C154.837 104.119 154.837 103.56 154.837 103.001C154.837 98.347 154.868 93.5994 154.93 88.7588C154.992 83.8561 155.054 79.1086 155.116 74.5162C155.24 69.8617 155.364 65.6106 155.488 61.763C159.46 61.763 162.78 61.794 165.449 61.8561C168.179 61.9181 170.321 62.0112 171.872 62.1353C171.686 65.4865 171.469 69.4894 171.22 74.1438C171.034 78.7983 170.817 83.701 170.569 88.8519C170.321 94.0028 170.103 99.0607 169.917 104.025C173.455 103.777 176.433 103.529 178.854 103.281L179.226 112.124C176.061 112.124 172.865 112.124 169.638 112.124C169.452 116.779 169.297 120.875 169.172 124.412C169.11 127.949 169.079 130.494 169.079 132.045C168.024 132.107 166.659 132.169 164.983 132.231C163.308 132.294 161.57 132.325 159.77 132.325C158.033 132.387 156.512 132.418 155.209 132.418Z" fill="#FFCD4D"/>
</svg>
