<svg width="138" height="134" viewBox="0 0 138 134" fill="none" xmlns="http://www.w3.org/2000/svg">
<path d="M35.4108 114.907C35.4108 126.333 45.0802 132.794 57.0006 132.794H80.2448C92.1653 132.794 102.243 126.333 102.243 114.907H35.4108Z" stroke="#FCD729" stroke-opacity="0.2" stroke-width="0.676215" stroke-linecap="round" stroke-dasharray="4.51 4.51"/>
<path d="M12.5813 89.356C12.5813 100.782 21.8351 107.333 33.7556 107.333H103.488C115.409 107.333 124.053 100.782 124.053 89.356H12.5813Z" stroke="#FCD729" stroke-opacity="0.2" stroke-width="0.676215" stroke-linecap="round" stroke-dasharray="4.51 4.51"/>
<path d="M15.4886 81.8667C7.23596 81.8667 0.545898 75.4541 0.545898 67.5437C0.545898 59.6333 7.23594 53.2207 15.4886 53.2207H121.748C130 53.2207 136.69 59.6333 136.69 67.5437C136.69 75.4541 130 81.8667 121.748 81.8667H15.4886Z" stroke="#FCD729" stroke-opacity="0.2" stroke-width="0.676215" stroke-linecap="round" stroke-dasharray="4.51 4.51"/>
<path d="M13.8269 46.856C13.8269 35.4299 23.4903 26.1672 35.4108 26.1672H105.143C117.064 26.1672 126.727 35.4299 126.727 46.856H13.8269Z" stroke="#FCD729" stroke-opacity="0.2" stroke-width="0.676215" stroke-linecap="round" stroke-dasharray="4.51 4.51"/>
<path d="M57.0006 0.706749C45.0802 0.706749 35.4108 8.24589 35.4108 19.672H70.7404H104.667C104.667 8.24589 93.8256 0.706749 81.9051 0.706749H57.0006Z" stroke="#FCD729" stroke-opacity="0.2" stroke-width="0.676215" stroke-linecap="round" stroke-dasharray="4.51 4.51"/>
</svg>
