<?xml version="1.0" encoding="UTF-8"?><svg id="Layer_2" xmlns="http://www.w3.org/2000/svg" viewBox="0 0 150.69 160.25"><defs><style>.cls-1,.cls-2,.cls-3{stroke-width:0px;}.cls-2{fill:#f5da82;}.cls-3{fill:#f2be00;}</style></defs><g id="objects"><path class="cls-2" d="M22.91,101.88c2.85-.26,5.45.05,7.59-.79,8-3.15,15.77-6.97,21.61-13.48,4.68-5.22,8.84-10.91,13.03-16.54,6.31-8.49,7.88-17.75,4.06-27.81-.79-2.07-2.07-3.37-4.14-3.45-3.34-.12-6.85-.52-10.03.27-14.2,3.51-26.97,9.75-36.74,21.04-7.46,8.62-11.67,18.51-11.22,30.09.18,4.79,2.79,8.31,7.43,9.47,2.87.72,5.87.86,8.41,1.21Z"/><path class="cls-2" d="M132.54,101.79c2.3-.19,4.63-.21,6.89-.6,6.59-1.15,9.43-4.67,9.54-11.31.15-8.91-2.65-16.95-7.66-24.11-10.15-14.52-24.82-22.11-41.65-25.95-2.82-.64-5.96-.3-8.88.09-1.29.17-2.98,1.33-3.51,2.49-3.49,7.6-3.53,15.42.2,22.85,2.09,4.16,5.32,7.74,7.88,11.69,6.06,9.33,13.81,16.65,23.94,21.53,4.27,2.06,8.41,3.8,13.25,3.32Z"/><path class="cls-2" d="M87.03,100.89c0,.33.01.65.02.98,6.65,0,13.29.06,19.94-.05,1.29-.02,3.2-.34,3.72-1.2,1.03-1.69-.56-2.84-1.85-3.97-3.89-3.42-7.78-6.86-11.42-10.54-1.57-1.58-3.03-2.25-5.26-2.22-9.42.14-18.85.14-28.27,0-2.21-.03-3.73.56-5.31,2.14-3.72,3.73-7.79,7.12-11.55,10.81-.95.94-1.29,2.5-1.91,3.78,1.17.42,2.35,1.23,3.51,1.21,12.8-.24,25.59-.61,38.38-.95Z"/><path class="cls-3" d="M104.35,35.52c.13-6.21-15.34-16.38-25.75-16.39-11.21-.02-25.96,8.88-26.96,16.4,3.49,0,7.01-.03,10.52,0,6.97.08,11.44,3.79,12.45,10.72.48,3.31.51,6.71.48,10.06-.02,2.17.83,2.92,2.88,2.94,2.05.02,2.94-.69,2.92-2.88-.03-3.36-.01-6.75.47-10.06,1.04-7.07,5.48-10.71,12.69-10.77,3.42-.03,6.85,0,10.29,0Z"/><path class="cls-3" d="M78.23,120.23c0,.19,0,.38.01.56,7.99,0,15.99-.22,23.97.06,8.27.28,8.53.25,9.21-8.17,0-.1.01-.19.03-.29.39-2.44-.54-3.64-3.13-3.51-3.36.16-6.73.24-10.1.29-8.07.12-16.15.3-24.22.26-8.85-.05-17.71-.33-26.56-.53-2.2-.05-3.31.88-2.94,3.13.4,2.47.89,4.92,1.39,7.37.32,1.58,1.27,2.05,2.94,1.98,9.8-.45,19.61-.78,29.41-1.15Z"/><path class="cls-2" d="M105.27,128.37h-54.66c-.15.28-.31.57-.46.85,1.41,1.47,2.6,3.27,4.27,4.35,2.48,1.6,5.19,3.03,7.99,3.95,8.55,2.8,13.44,8.21,13.69,17.5.02.8.27,1.59.58,2.39.44-.49.88-.97,1.35-1.41.21-.28.42-.57.63-.85.06-.34.06-.68.06-1.05,0-.3.12-.59.29-.88.12-.76.23-1.52.4-2.26.2-.85.76-1.56,1.48-2.02,1.75-5.5,5.93-9.06,12.11-11.21,3.06-1.07,6.03-2.57,8.77-4.3,1.62-1.02,2.73-2.87,4.07-4.34-.19-.23-.39-.47-.58-.7Z"/><path class="cls-3" d="M90.19,77.7c-2.61-4.48-5.22-8.58-7.41-12.9-1.05-2.07-2.39-2.42-4.36-2.31-2.06.11-3.96-.29-5.23,2.34-1.86,3.85-4.43,7.36-6.68,11.02-.32.52-.56,1.1-.95,1.85h24.64Z"/><path class="cls-1" d="M100.01,2.33c-4.08,4.09-8.17,8.18-12.59,12.61,1.76.96,3.15,1.75,4.57,2.49,7.37,3.82,13.05,9.11,15.61,17.32.3.97,1.62,1.81,2.66,2.34,4.19,2.16,8.6,3.93,12.66,6.31,13.43,7.88,23.09,18.88,26.73,34.33.98,4.15,1.15,8.6,1.01,12.89-.23,6.83-5.9,12.12-13.48,12.68-7.49.56-15.08,1.14-21.83-3.39-.31-.21-.71-.31-1.08-.41-.17-.05-.37.03-.14,0-.52,5.69-.65,11.34-1.62,16.84-2.04,11.62-8.3,19.99-19.95,23.59-7.18,2.22-11.23,7.11-12.69,14.34-.13.66-.05,1.54-.44,1.94-1.41,1.43-2.98,2.69-4.49,4.02-1.2-1.38-2.61-2.64-3.55-4.18-.66-1.1-.65-2.59-1-3.89-1.53-5.72-4.97-9.91-10.65-11.63-16.86-5.1-21.4-17.66-22.57-32.06-.24-2.93-.03-5.89-.03-9.2-1.39.62-2.77,1.2-4.12,1.84-7.95,3.78-16.21,3.27-24.24.91-5.42-1.6-8.32-6.17-8.68-11.87-.81-13.02,3.83-24.14,12.17-33.92,7.38-8.66,16.75-14.4,27.15-18.6,2.3-.93,3.58-2.17,4.49-4.66,2.51-6.91,7.62-11.68,14.05-15.09,5.75-3.06,5.73-3.05,2.94-8.88-.96-1.99-1.97-4-2.57-6.11-.23-.81.65-1.93,1.03-2.91.84.49,2.1.78,2.45,1.51,1.5,3.12,2.84,6.33,4,9.59.65,1.81,1.48,2.59,3.53,2.51,4.23-.18,8.48.1,12.71-.09,1.25-.06,2.66-.82,3.64-1.68,3.4-2.96,6.58-6.18,10.01-9.12.96-.82,2.46-1.02,3.71-1.5l.61,1.11ZM20.32,99.9c2.85-.26,5.45.05,7.59-.79,8-3.15,15.77-6.97,21.61-13.48,4.68-5.22,8.84-10.91,13.03-16.54,6.31-8.49,7.88-17.75,4.06-27.81-.79-2.07-2.07-3.37-4.14-3.45-3.34-.12-6.85-.52-10.03.27-14.2,3.51-26.97,9.75-36.74,21.04-7.46,8.62-11.67,18.51-11.22,30.09.18,4.79,2.79,8.31,7.43,9.47,2.87.72,5.87.86,8.41,1.21ZM129.95,99.81c2.3-.19,4.63-.21,6.89-.6,6.59-1.15,9.43-4.67,9.54-11.31.15-8.91-2.65-16.95-7.66-24.11-10.15-14.52-24.82-22.11-41.65-25.95-2.82-.64-5.96-.3-8.88.09-1.29.17-2.98,1.33-3.51,2.49-3.49,7.6-3.53,15.42.2,22.85,2.09,4.16,5.32,7.74,7.88,11.69,6.06,9.33,13.81,16.65,23.94,21.53,4.27,2.06,8.41,3.8,13.25,3.32ZM84.44,98.91c0,.33.01.65.02.98,6.65,0,13.29.06,19.94-.05,1.29-.02,3.2-.34,3.72-1.2,1.03-1.69-.56-2.84-1.85-3.97-3.89-3.42-7.78-6.86-11.42-10.54-1.57-1.58-3.03-2.25-5.26-2.22-9.42.14-18.85.14-28.27,0-2.21-.03-3.73.56-5.31,2.14-3.72,3.73-7.79,7.12-11.55,10.81-.95.94-1.29,2.5-1.91,3.78,1.17.42,2.35,1.23,3.51,1.21,12.8-.24,25.59-.61,38.38-.95ZM101.77,33.54c.13-6.21-15.34-16.38-25.75-16.39-11.21-.02-25.96,8.88-26.96,16.4,3.49,0,7.01-.03,10.52,0,6.97.08,11.44,3.79,12.45,10.72.48,3.31.51,6.71.48,10.06-.02,2.17.83,2.92,2.88,2.94,2.05.02,2.94-.69,2.92-2.88-.03-3.36-.01-6.75.47-10.06,1.04-7.07,5.48-10.71,12.69-10.77,3.42-.03,6.85,0,10.29,0ZM75.64,118.25c0,.19,0,.38.01.56,7.99,0,15.99-.22,23.97.06,8.27.28,8.53.25,9.21-8.17,0-.1.01-.19.03-.29.39-2.44-.54-3.64-3.13-3.51-3.36.16-6.73.24-10.1.29-8.07.12-16.15.3-24.22.26-8.85-.05-17.71-.33-26.56-.53-2.2-.05-3.31.88-2.94,3.13.4,2.47.89,4.92,1.39,7.37.32,1.58,1.27,2.05,2.94,1.98,9.8-.45,19.61-.78,29.41-1.15ZM75.09,157.92c.35-.08.69-.15,1.04-.23.21-.31.54-.59.61-.92.27-1.42.61-2.84.66-4.27.3-8.75,4.98-13.96,13.03-16.76,3.06-1.07,6.03-2.57,8.77-4.3,1.62-1.02,2.73-2.87,4.07-4.34-.19-.23-.39-.47-.58-.7h-54.66c-.15.28-.31.57-.46.85,1.41,1.47,2.6,3.27,4.27,4.35,2.48,1.6,5.19,3.03,7.99,3.95,8.55,2.8,13.44,8.21,13.69,17.5.04,1.64,1.03,3.26,1.58,4.88ZM87.6,75.72c-2.61-4.48-5.22-8.58-7.41-12.9-1.05-2.07-2.39-2.42-4.36-2.31-2.06.11-3.96-.29-5.23,2.34-1.86,3.85-4.43,7.36-6.68,11.02-.32.52-.56,1.1-.95,1.85h24.64Z"/></g></svg>