<svg width="170" height="32" viewBox="0 0 170 32" fill="none" xmlns="http://www.w3.org/2000/svg">
<rect width="32" height="32" rx="16" fill="#2F1F0E"/>
<path d="M20.6085 22.2549C20.6084 23.8307 19.3308 25.1084 17.755 25.1084H14.463C12.8872 25.1084 11.6096 23.8307 11.6095 22.2549H20.6085ZM23.6818 18.7441C23.6816 20.3198 22.404 21.5967 20.8282 21.5967H11.6095C10.034 21.5964 8.75712 20.3197 8.75696 18.7441H23.6818ZM23.0236 13.9141C24.1145 13.9141 24.9991 14.7987 24.9991 15.8896C24.9991 16.9806 24.1145 17.8652 23.0236 17.8652H8.97668C7.88572 17.8652 7.0011 16.9806 7.0011 15.8896C7.0011 14.7987 7.88572 13.9141 8.97668 13.9141H23.0236ZM20.6095 10.4023C22.1851 10.4026 23.462 11.6802 23.462 13.2559H8.53723C8.53723 11.68 9.81491 10.4023 11.3907 10.4023H20.6095ZM17.5353 6.8916C19.1111 6.8916 20.3888 8.16928 20.3888 9.74512H11.6095C11.6095 8.16928 12.8872 6.8916 14.463 6.8916H17.5353Z" fill="#FFCD4D"/>
<path d="M41.186 5.75103H44.368V13.9953H47.7814V5.75103H50.9634V26H47.7814V16.888H44.368V26H41.186V5.75103ZM57.9325 26.2893C56.3705 26.2893 55.1748 25.8457 54.3456 24.9586C53.5163 24.0715 53.1017 22.818 53.1017 21.1981V10.5529C53.1017 8.93301 53.5163 7.67951 54.3456 6.79241C55.1748 5.90531 56.3705 5.46176 57.9325 5.46176C59.4946 5.46176 60.6903 5.90531 61.5195 6.79241C62.3487 7.67951 62.7634 8.93301 62.7634 10.5529V21.1981C62.7634 22.818 62.3487 24.0715 61.5195 24.9586C60.6903 25.8457 59.4946 26.2893 57.9325 26.2893ZM57.9325 23.3966C59.0318 23.3966 59.5814 22.7312 59.5814 21.4006V10.3504C59.5814 9.0198 59.0318 8.35447 57.9325 8.35447C56.8333 8.35447 56.2837 9.0198 56.2837 10.3504V21.4006C56.2837 22.7312 56.8333 23.3966 57.9325 23.3966ZM64.9153 5.75103H68.9072L72.0024 17.8715H72.0603V5.75103H74.8951V26H71.6264L67.808 11.2183H67.7501V26H64.9153V5.75103ZM77.2601 5.75103H85.9383V8.64374H80.4421V13.9953H84.8101V16.888H80.4421V23.1073H85.9383V26H77.2601V5.75103ZM90.6904 17.3797L86.8431 5.75103H90.2276L92.3971 13.1853H92.455L94.6245 5.75103H97.7197L93.8724 17.3797V26H90.6904V17.3797ZM99.1532 5.75103H103.839C105.421 5.75103 106.607 6.1753 107.397 7.02383C108.188 7.87235 108.583 9.11622 108.583 10.7554V12.7514C108.583 14.3906 108.188 15.6345 107.397 16.483C106.607 17.3315 105.421 17.7558 103.839 17.7558H102.335V26H99.1532V5.75103ZM103.839 14.8631C104.36 14.8631 104.746 14.7184 104.996 14.4292C105.266 14.1399 105.401 13.6481 105.401 12.9539V10.5529C105.401 9.85868 105.266 9.36692 104.996 9.07765C104.746 8.78838 104.36 8.64374 103.839 8.64374H102.335V14.8631H103.839ZM114.911 26.2893C113.349 26.2893 112.153 25.8457 111.324 24.9586C110.495 24.0715 110.08 22.818 110.08 21.1981V10.5529C110.08 8.93301 110.495 7.67951 111.324 6.79241C112.153 5.90531 113.349 5.46176 114.911 5.46176C116.473 5.46176 117.669 5.90531 118.498 6.79241C119.327 7.67951 119.742 8.93301 119.742 10.5529V21.1981C119.742 22.818 119.327 24.0715 118.498 24.9586C117.669 25.8457 116.473 26.2893 114.911 26.2893ZM114.911 23.3966C116.01 23.3966 116.56 22.7312 116.56 21.4006V10.3504C116.56 9.0198 116.01 8.35447 114.911 8.35447C113.812 8.35447 113.262 9.0198 113.262 10.3504V21.4006C113.262 22.7312 113.812 23.3966 114.911 23.3966ZM124.268 8.64374H120.942V5.75103H130.777V8.64374H127.45V26H124.268V8.64374ZM136.951 5.75103H141.81C143.392 5.75103 144.578 6.1753 145.368 7.02383C146.159 7.87235 146.554 9.11622 146.554 10.7554V20.9956C146.554 22.6348 146.159 23.8787 145.368 24.7272C144.578 25.5757 143.392 26 141.81 26H136.951V5.75103ZM141.752 23.1073C142.273 23.1073 142.668 22.953 142.938 22.6445C143.228 22.3359 143.372 21.8345 143.372 21.1402V10.6108C143.372 9.91654 143.228 9.41513 142.938 9.10658C142.668 8.79802 142.273 8.64374 141.752 8.64374H140.132V23.1073H141.752ZM148.702 5.75103H157.38V8.64374H151.884V13.9953H156.252V16.888H151.884V23.1073H157.38V26H148.702V5.75103ZM162.073 15.6441L158.573 5.75103H161.929L164.069 12.2886H164.127L166.326 5.75103H169.334L165.834 15.6441L169.507 26H166.152L163.838 18.9418H163.78L161.408 26H158.399L162.073 15.6441Z" fill="white"/>
</svg>
