<svg width="268" height="40" viewBox="0 0 268 40" fill="none" xmlns="http://www.w3.org/2000/svg">
<rect x="0.361599" y="0.861599" width="38.2768" height="38.2768" rx="19.1384" fill="#A46617"/>
<rect x="0.361599" y="0.861599" width="38.2768" height="38.2768" rx="19.1384" stroke="black" stroke-width="0.723198"/>
<mask id="path-2-inside-1_522_2215" fill="white">
<path fill-rule="evenodd" clip-rule="evenodd" d="M15.3111 14.0312C15.3111 12.5276 16.5301 11.3086 18.0337 11.3086H20.9658C22.4695 11.3086 23.6884 12.5276 23.6884 14.0312H15.3111ZM12.3792 17.382C12.3792 15.8783 13.5981 14.6594 15.1018 14.6594H23.898C25.4016 14.6594 26.6206 15.8783 26.6206 17.382H12.3792ZM12.7981 18.0103C11.7571 18.0103 10.9132 18.8542 10.9132 19.8952C10.9132 20.9362 11.7571 21.78 12.7981 21.78H26.2018C27.2428 21.78 28.0867 20.9362 28.0867 19.8952C28.0867 18.8542 27.2428 18.0103 26.2018 18.0103H12.7981ZM12.5887 22.6179C12.5887 24.1216 13.8077 25.3405 15.3114 25.3405H24.1075C25.6112 25.3405 26.8302 24.1216 26.8302 22.6179H12.5887ZM18.0337 28.6914C16.5301 28.6914 15.3111 27.4725 15.3111 25.9688H23.8979C23.8979 27.4725 22.6789 28.6914 21.1752 28.6914H18.0337Z"/>
</mask>
<path fill-rule="evenodd" clip-rule="evenodd" d="M15.3111 14.0312C15.3111 12.5276 16.5301 11.3086 18.0337 11.3086H20.9658C22.4695 11.3086 23.6884 12.5276 23.6884 14.0312H15.3111ZM12.3792 17.382C12.3792 15.8783 13.5981 14.6594 15.1018 14.6594H23.898C25.4016 14.6594 26.6206 15.8783 26.6206 17.382H12.3792ZM12.7981 18.0103C11.7571 18.0103 10.9132 18.8542 10.9132 19.8952C10.9132 20.9362 11.7571 21.78 12.7981 21.78H26.2018C27.2428 21.78 28.0867 20.9362 28.0867 19.8952C28.0867 18.8542 27.2428 18.0103 26.2018 18.0103H12.7981ZM12.5887 22.6179C12.5887 24.1216 13.8077 25.3405 15.3114 25.3405H24.1075C25.6112 25.3405 26.8302 24.1216 26.8302 22.6179H12.5887ZM18.0337 28.6914C16.5301 28.6914 15.3111 27.4725 15.3111 25.9688H23.8979C23.8979 27.4725 22.6789 28.6914 21.1752 28.6914H18.0337Z" fill="#FFCD4D"/>
<path d="M15.3111 14.0312H15.1111V14.2312H15.3111V14.0312ZM23.6884 14.0312V14.2312H23.8884V14.0312H23.6884ZM12.3792 17.382H12.1792V17.582H12.3792V17.382ZM26.6206 17.382V17.582H26.8206V17.382H26.6206ZM12.5887 22.6179V22.4179H12.3887V22.6179H12.5887ZM26.8302 22.6179H27.0302V22.4179H26.8302V22.6179ZM15.3111 25.9688V25.7688H15.1111V25.9688H15.3111ZM23.8979 25.9688H24.0979V25.7688H23.8979V25.9688ZM18.0337 11.1086C16.4196 11.1086 15.1111 12.4171 15.1111 14.0312H15.5111C15.5111 12.638 16.6405 11.5086 18.0337 11.5086V11.1086ZM20.9658 11.1086H18.0337V11.5086H20.9658V11.1086ZM23.8884 14.0312C23.8884 12.4171 22.5799 11.1086 20.9658 11.1086V11.5086C22.359 11.5086 23.4884 12.638 23.4884 14.0312H23.8884ZM15.3111 14.2312H23.6884V13.8312H15.3111V14.2312ZM15.1018 14.4594C13.4877 14.4594 12.1792 15.7679 12.1792 17.382H12.5792C12.5792 15.9888 13.7086 14.8594 15.1018 14.8594V14.4594ZM23.898 14.4594H15.1018V14.8594H23.898V14.4594ZM26.8206 17.382C26.8206 15.7679 25.5121 14.4594 23.898 14.4594V14.8594C25.2912 14.8594 26.4206 15.9888 26.4206 17.382H26.8206ZM12.3792 17.582H26.6206V17.182H12.3792V17.582ZM11.1132 19.8952C11.1132 18.9646 11.8676 18.2103 12.7981 18.2103V17.8103C11.6466 17.8103 10.7132 18.7437 10.7132 19.8952H11.1132ZM12.7981 21.58C11.8676 21.58 11.1132 20.8257 11.1132 19.8952H10.7132C10.7132 21.0466 11.6466 21.98 12.7981 21.98V21.58ZM26.2018 21.58H12.7981V21.98H26.2018V21.58ZM27.8867 19.8952C27.8867 20.8257 27.1323 21.58 26.2018 21.58V21.98C27.3532 21.98 28.2867 21.0466 28.2867 19.8952H27.8867ZM26.2018 18.2103C27.1323 18.2103 27.8867 18.9646 27.8867 19.8952H28.2867C28.2867 18.7437 27.3532 17.8103 26.2018 17.8103V18.2103ZM12.7981 18.2103H26.2018V17.8103H12.7981V18.2103ZM15.3114 25.1405C13.9182 25.1405 12.7887 24.0111 12.7887 22.6179H12.3887C12.3887 24.232 13.6973 25.5405 15.3114 25.5405V25.1405ZM24.1075 25.1405H15.3114V25.5405H24.1075V25.1405ZM26.6302 22.6179C26.6302 24.0111 25.5007 25.1405 24.1075 25.1405V25.5405C25.7217 25.5405 27.0302 24.232 27.0302 22.6179H26.6302ZM12.5887 22.8179H26.8302V22.4179H12.5887V22.8179ZM15.1111 25.9688C15.1111 27.5829 16.4196 28.8914 18.0337 28.8914V28.4914C16.6405 28.4914 15.5111 27.362 15.5111 25.9688H15.1111ZM23.8979 25.7688H15.3111V26.1688H23.8979V25.7688ZM21.1752 28.8914C22.7893 28.8914 24.0979 27.5829 24.0979 25.9688H23.6979C23.6979 27.362 22.5684 28.4914 21.1752 28.4914V28.8914ZM18.0337 28.8914H21.1752V28.4914H18.0337V28.8914Z" fill="black" mask="url(#path-2-inside-1_522_2215)"/>
<path d="M48.2475 10.7009H51.5945V19.3726H55.185V10.7009H58.532V32H55.185V22.4154H51.5945V32H48.2475V10.7009ZM65.8626 32.3043C64.2195 32.3043 62.9618 31.8377 62.0896 30.9046C61.2173 29.9715 60.7812 28.653 60.7812 26.9491V15.7518C60.7812 14.0479 61.2173 12.7293 62.0896 11.7962C62.9618 10.8631 64.2195 10.3966 65.8626 10.3966C67.5057 10.3966 68.7633 10.8631 69.6356 11.7962C70.5078 12.7293 70.9439 14.0479 70.9439 15.7518V26.9491C70.9439 28.653 70.5078 29.9715 69.6356 30.9046C68.7633 31.8377 67.5057 32.3043 65.8626 32.3043ZM65.8626 29.2615C67.0188 29.2615 67.5969 28.5617 67.5969 27.1621V15.5388C67.5969 14.1391 67.0188 13.4393 65.8626 13.4393C64.7063 13.4393 64.1282 14.1391 64.1282 15.5388V27.1621C64.1282 28.5617 64.7063 29.2615 65.8626 29.2615ZM73.2075 10.7009H77.4064L80.6622 23.4499H80.723V10.7009H83.7049V32H80.2666L76.2502 16.4516H76.1893V32H73.2075V10.7009ZM86.1926 10.7009H95.3208V13.7436H89.5396V19.3726H94.1341V22.4154H89.5396V28.9573H95.3208V32H86.1926V10.7009ZM100.319 22.9326L96.2726 10.7009H99.8326L102.115 18.5207H102.175L104.458 10.7009H107.713L103.666 22.9326V32H100.319V22.9326ZM109.221 10.7009H114.15C115.814 10.7009 117.061 11.1471 117.893 12.0397C118.725 12.9322 119.14 14.2406 119.14 15.9648V18.0643C119.14 19.7885 118.725 21.0969 117.893 21.9894C117.061 22.8819 115.814 23.3282 114.15 23.3282H112.568V32H109.221V10.7009ZM114.15 20.2855C114.698 20.2855 115.104 20.1333 115.367 19.8291C115.651 19.5248 115.793 19.0075 115.793 18.2773V15.7518C115.793 15.0215 115.651 14.5043 115.367 14.2C115.104 13.8957 114.698 13.7436 114.15 13.7436H112.568V20.2855H114.15ZM125.796 32.3043C124.153 32.3043 122.895 31.8377 122.023 30.9046C121.151 29.9715 120.715 28.653 120.715 26.9491V15.7518C120.715 14.0479 121.151 12.7293 122.023 11.7962C122.895 10.8631 124.153 10.3966 125.796 10.3966C127.439 10.3966 128.697 10.8631 129.569 11.7962C130.441 12.7293 130.878 14.0479 130.878 15.7518V26.9491C130.878 28.653 130.441 29.9715 129.569 30.9046C128.697 31.8377 127.439 32.3043 125.796 32.3043ZM125.796 29.2615C126.952 29.2615 127.53 28.5617 127.53 27.1621V15.5388C127.53 14.1391 126.952 13.4393 125.796 13.4393C124.64 13.4393 124.062 14.1391 124.062 15.5388V27.1621C124.062 28.5617 124.64 29.2615 125.796 29.2615ZM135.639 13.7436H132.14V10.7009H142.485V13.7436H138.986V32H135.639V13.7436ZM148.979 10.7009H157.833V13.7436H152.326V19.6769H156.646V22.7197H152.326V32H148.979V10.7009ZM159.438 10.7009H162.785V32H159.438V10.7009ZM165.292 10.7009H169.491L172.746 23.4499H172.807V10.7009H175.789V32H172.351L168.335 16.4516H168.274V32H165.292V10.7009ZM180.863 10.7009H185.397L188.866 32H185.519L184.91 27.7706V27.8315H181.107L180.498 32H177.395L180.863 10.7009ZM184.515 24.9409L183.024 14.413H182.963L181.502 24.9409H184.515ZM190.489 10.7009H194.688L197.944 23.4499H198.005V10.7009H200.987V32H197.549L193.532 16.4516H193.471V32H190.489V10.7009ZM208.191 32.3043C206.588 32.3043 205.361 31.8479 204.509 30.935C203.677 30.0222 203.262 28.7341 203.262 27.0708V15.6301C203.262 13.9667 203.677 12.6786 204.509 11.7658C205.361 10.853 206.588 10.3966 208.191 10.3966C209.793 10.3966 211.01 10.853 211.842 11.7658C212.694 12.6786 213.12 13.9667 213.12 15.6301V17.8817H209.956V15.4171C209.956 14.0986 209.398 13.4393 208.282 13.4393C207.166 13.4393 206.609 14.0986 206.609 15.4171V27.3142C206.609 28.6124 207.166 29.2615 208.282 29.2615C209.398 29.2615 209.956 28.6124 209.956 27.3142V24.0585H213.12V27.0708C213.12 28.7341 212.694 30.0222 211.842 30.935C211.01 31.8479 209.793 32.3043 208.191 32.3043ZM215.123 10.7009H224.251V13.7436H218.47V19.3726H223.064V22.4154H218.47V28.9573H224.251V32H215.123V10.7009Z" fill="black"/>
<rect x="233.319" y="11.0671" width="34.1232" height="17.8657" rx="8.93286" stroke="black" stroke-width="0.638062"/>
<path d="M239.827 23V16.747H240.631L242.06 19.7216L243.49 16.747H244.294V23H243.561V18.1941L242.346 20.7221H241.775L240.56 18.2031V23H239.827ZM247.363 17.7832C247.184 17.7832 247.036 17.7237 246.916 17.6046C246.797 17.4854 246.738 17.3425 246.738 17.1758C246.738 17.0031 246.797 16.8601 246.916 16.747C247.036 16.6279 247.184 16.5683 247.363 16.5683C247.536 16.5683 247.682 16.6279 247.801 16.747C247.926 16.8601 247.988 17.0031 247.988 17.1758C247.988 17.3425 247.926 17.4854 247.801 17.6046C247.682 17.7237 247.536 17.7832 247.363 17.7832ZM245.63 23V22.3568H247.042V19.4358C247.042 19.2869 246.967 19.2125 246.818 19.2125H245.782V18.5693H246.997C247.527 18.5693 247.792 18.8343 247.792 19.3643V22.3568H249.203V23H245.63ZM250.879 23V18.5693H251.504L251.585 19.2393H251.63C251.749 19.0249 251.936 18.8432 252.192 18.6944C252.448 18.5395 252.743 18.4621 253.077 18.4621C253.619 18.4621 254.024 18.6229 254.292 18.9445C254.565 19.2661 254.702 19.7306 254.702 20.338V23H253.952V20.4273C253.952 20.0343 253.866 19.7276 253.693 19.5073C253.52 19.281 253.252 19.1678 252.889 19.1678C252.538 19.1678 252.24 19.2899 251.996 19.534C251.752 19.7723 251.63 20.1177 251.63 20.5703V23H250.879ZM258.594 23C258.189 23 257.87 22.9017 257.638 22.7052C257.406 22.5087 257.289 22.1544 257.289 21.6422V19.2125H256.164V18.5693H256.834C257.138 18.5693 257.313 18.4204 257.361 18.1227L257.486 17.4348H258.04V18.5693H259.809V19.2125H258.04V21.6422C258.04 21.8923 258.096 22.068 258.21 22.1692C258.329 22.2705 258.531 22.3211 258.817 22.3211H259.809V23H258.594Z" fill="black"/>
</svg>
