<svg width="13" height="12" viewBox="0 0 13 12" fill="none" xmlns="http://www.w3.org/2000/svg">
<path d="M10.1831 4.17188C9.87247 4.17188 9.62061 4.42374 9.62061 4.73438V9.16406C9.62061 9.9007 9.0213 10.5 8.28467 10.5H3.22217C2.48553 10.5 1.88623 9.9007 1.88623 9.16406V4.10156C1.88623 3.36493 2.48553 2.76562 3.22217 2.76562H7.65186C7.96249 2.76562 8.21436 2.51376 8.21436 2.20312C8.21436 1.89249 7.96249 1.64062 7.65186 1.64062H3.22217C1.86522 1.64062 0.76123 2.74461 0.76123 4.10156V9.16406C0.76123 10.521 1.86522 11.625 3.22217 11.625H8.28467C9.64162 11.625 10.7456 10.521 10.7456 9.16406V4.73438C10.7456 4.42374 10.4937 4.17188 10.1831 4.17188Z" fill="black"/>
<path d="M11.9995 0.827483C11.9454 0.575737 11.7117 0.375 11.4487 0.375H8.91748C8.60684 0.375 8.35498 0.626862 8.35498 0.9375C8.35498 1.24814 8.60684 1.5 8.91748 1.5H10.0908L5.35571 6.23511C5.13599 6.4547 5.13599 6.81093 5.35571 7.03052C5.46544 7.14038 5.6095 7.19531 5.75342 7.19531C5.89734 7.19531 6.0414 7.14038 6.15112 7.03052L10.8862 2.29541V3.78516C10.8862 4.09579 11.1381 4.34766 11.4487 4.34766C11.7594 4.34766 12.0112 4.09579 12.0112 3.78516V0.937501C12.0112 0.900084 12.0072 0.863268 11.9995 0.827483Z" fill="black"/>
</svg>
