<svg width="276" height="276" viewBox="0 0 276 276" fill="none" xmlns="http://www.w3.org/2000/svg">
<g clip-path="url(#clip0_641_951)">
<rect width="276" height="276" rx="138" fill="#523914"/>
<path d="M95.0838 91.5237L307.058 216.737L288.531 242.74L77.3297 114.78L95.0838 91.5237Z" fill="#F9DD95" stroke="#FFFCFC" stroke-width="0.395544"/>
<path d="M200.598 160.838C205.582 154.134 205.186 148.017 204.366 145.797L201.142 142.408L193.268 138.882C189.661 140.971 181.208 146.563 176.255 152.214C171.302 157.865 167.109 169.292 165.632 174.299C165.795 176.281 166.918 180.267 170.106 180.361C174.091 180.478 176.71 181.873 181.398 180.694C186.086 179.515 194.367 169.218 200.598 160.838Z" fill="#FFCD4D"/>
<path d="M199.146 143.821C200.586 141.538 198.681 137.925 197.549 136.403L195.179 132.824C194.378 132.166 191.523 130.76 186.508 130.404C180.24 129.959 179.511 131.55 170.999 138.768C162.486 145.986 152.731 163.135 151.222 168.886C149.713 174.637 151.051 177.553 155.525 180.532C160 183.511 163.518 181.975 167.029 180.76C170.54 179.545 175.136 176.424 172.664 177.981C170.192 179.538 175.288 168.72 180.682 160.477C186.076 152.234 186.361 155.451 192.396 150.111C197.223 145.839 198.907 144.138 199.146 143.821Z" fill="#FFCD4D"/>
<path d="M149.252 180.48C152.282 180.837 156.577 178.107 158.345 176.697L159.41 175.716L159.498 172.684C159.537 171.337 159.566 170.326 161.754 166.344C163.943 162.361 169.404 152.742 171.928 149.106C174.452 145.47 176.601 142.835 178.711 141.548C180.822 140.26 189.697 132.088 190.791 130.097C191.885 128.106 191.953 125.748 190.995 123.023C190.038 120.298 188.005 118.89 185.618 117.81C183.23 116.729 179.827 114.945 169.095 115.646C160.509 116.207 145.259 139.344 138.707 150.842C135.26 155.328 134.874 163.88 135.112 167.596C135.744 169.637 136.692 172.699 139.702 176.157C142.712 179.616 145.464 180.033 149.252 180.48Z" fill="#FFCD4D"/>
<path d="M177.733 103.512C181.427 108.071 180.95 116.742 180.25 120.507C179.349 121.831 175.518 127.854 167.398 141.36C157.248 158.243 149.842 166.497 146.473 170.461C143.778 173.632 133.982 175.675 129.421 176.3C122.755 176.241 112.82 168.832 110.531 163.819C108.242 158.807 108.959 153.156 110.693 145.517C112.428 137.878 136.65 112.8 144.051 105.211C151.452 97.6219 158.133 96.0171 163.466 96.0643C168.799 96.1116 173.117 97.8138 177.733 103.512Z" fill="#FFCD4D"/>
<path d="M159.412 92.5639C163.198 96.7417 163.692 106.814 163.466 111.327L158.783 114.299L151.738 119.463C150.149 121.395 146.561 125.586 144.914 126.894C142.855 128.53 133.932 139.007 131.546 142.046C129.159 145.084 124.681 150.888 123.46 153.395C122.482 155.401 121.927 160.037 121.771 162.104C120.401 163.1 117.145 165.078 115.078 165.018C112.494 164.943 105.293 165.583 96.7941 161.382C89.9954 158.021 88.2078 153.6 88.1638 151.809C85.9569 148.637 85.8168 143.548 88.7109 132.896C91.605 122.244 115.044 96.6483 123.878 89.2759C132.711 81.9035 140.749 82.136 144.465 82.8085C148.181 83.481 154.678 87.3417 159.412 92.5639Z" fill="#FFCD4D"/>
<path d="M159.412 92.5639C163.198 96.7417 163.692 106.814 163.466 111.327L158.783 114.299L151.738 119.463C150.149 121.395 146.561 125.586 144.914 126.894C142.855 128.53 133.932 139.007 131.546 142.046C129.159 145.084 124.681 150.888 123.46 153.395C122.482 155.401 121.927 160.037 121.771 162.104C120.401 163.1 117.145 165.078 115.078 165.018C112.494 164.943 105.293 165.583 96.7941 161.382C89.9954 158.021 88.2078 153.6 88.1638 151.809C85.9569 148.637 85.8168 143.548 88.7109 132.896C91.605 122.244 115.044 96.6483 123.878 89.2759C132.711 81.9035 140.749 82.136 144.465 82.8085C148.181 83.481 154.678 87.3417 159.412 92.5639Z" fill="#FFCD4D"/>
<path d="M130.972 74.5353C134.467 78.6856 135.683 86.7884 135.855 90.3211L131.698 92.0413C130.297 93.1511 127.202 95.5463 126.032 96.2487C124.861 96.951 118.333 104.462 115.215 108.129C112.721 111.508 107.262 118.942 105.377 121.649C103.491 124.355 101.806 129.138 101.199 131.191C100.367 133.927 98.6893 139.861 98.6361 141.7C98.5829 143.538 99.3549 145.248 99.7475 145.873C98.6133 147.22 94.7033 149.868 88.1373 149.678L77.8778 149.381C73.2923 148.881 70.5753 146.256 69.79 145.006C66.1631 142.601 63.1194 134.23 60.8832 126.343C58.6471 118.456 59.6274 112.963 61.4551 106.574C63.2828 100.185 71.8361 88.4692 75.2388 84.4265C78.6415 80.3837 85.8307 73.2295 92.9534 68.3741C100.076 63.5187 107.053 63.7205 113.208 63.8986C119.364 64.0766 126.604 69.3475 130.972 74.5353Z" fill="#FFCD4D"/>
<path d="M137.291 114.045C139.34 112.679 141.133 109.634 141.773 108.283C141.773 107.571 141.517 105.636 140.492 103.588C139.212 101.027 137.291 98.8926 133.877 97.8256C130.462 96.7585 126.834 98.039 120.218 97.8256C113.602 97.6122 112.322 96.3317 108.907 91.4232C105.493 86.5148 110.401 77.9783 110.401 74.1369C110.401 70.2955 105.92 65.387 98.877 63.0395C93.243 61.1615 83.4402 63.822 79.2431 65.387L75.4017 68.3748C74.7615 69.7975 72.9262 73.7101 70.7067 77.9783C67.9323 83.3136 61.9568 83.3136 56.8349 88.2221C51.713 93.1305 50.2192 97.3988 47.6582 100.6C45.0973 103.801 45.5241 111.697 45.3107 112.124C45.0973 112.551 47.018 119.38 47.6582 121.514C48.2985 123.648 50.2192 129.624 53.6338 131.331C57.0483 133.039 57.0483 131.545 58.5422 131.331C60.0361 131.118 62.8105 128.984 65.3714 129.624C67.4201 130.136 68.0746 133.252 68.1457 134.746C68.0746 135.742 67.7189 137.734 66.8653 137.734C65.7982 137.734 64.5177 141.148 65.3714 142.855C66.225 144.563 66.4385 147.124 69.853 146.483C73.2676 145.843 69.6396 143.069 70.7067 139.441C71.7737 135.813 77.7493 137.093 82.2309 137.734C86.7126 138.374 89.0601 135.813 90.554 134.746C92.0478 133.679 93.1149 134.746 94.182 135.813C95.249 136.88 93.5417 141.148 96.9563 144.563C100.371 147.977 101.651 147.124 104.853 147.124C107.413 147.124 108.623 145.416 108.907 144.563C111.682 142.855 109.334 142.215 110.401 141.148C111.468 140.081 112.749 136.026 113.816 134.746C114.883 133.465 118.511 128.77 120.218 126.423C121.584 124.545 124.486 120.234 125.767 118.313C126.763 118.384 129.395 118.27 131.956 117.246C135.157 115.966 134.73 115.752 137.291 114.045Z" fill="#EBC054" fill-opacity="0.69" stroke="#9F6711" stroke-opacity="0.04" stroke-width="0.426823"/>
<path d="M170.584 148.191C172.12 144.605 176.488 142.998 178.48 142.642C179.761 142.215 182.706 141.618 184.242 142.642C186.163 143.922 186.163 144.563 187.87 147.764C189.577 150.965 191.071 153.312 194.486 155.233C197.9 157.154 200.675 158.221 203.876 158.861C207.077 159.501 213.906 163.77 216.04 166.331C217.748 168.379 217.606 171.737 217.321 173.16C217.036 176.005 216.51 181.952 216.681 182.977C216.894 184.257 217.321 187.885 218.815 190.66C220.309 193.434 218.815 194.288 219.455 195.568C219.967 196.592 220.664 196.422 220.949 196.208C221.973 196.379 222.229 193.861 222.229 192.58C221.66 191.727 220.181 189.592 218.815 187.885C217.108 185.751 217.961 180.202 218.175 175.934C218.388 171.666 217.321 169.318 217.321 166.971C217.321 165.093 211.772 161.209 208.998 159.501C206.579 158.719 200.589 156.642 195.98 154.593C190.218 152.032 188.51 146.483 187.017 142.642C185.821 139.569 179.263 137.093 176.133 136.24C174.425 134.532 171.651 135.599 167.383 136.24C163.968 136.752 163.114 134.461 163.114 133.252C162.047 131.971 164.181 128.343 163.114 126.209C162.047 124.075 157.779 125.142 155.432 126.209C153.084 127.276 151.377 131.544 146.895 136.24C142.413 140.935 137.932 149.684 137.078 151.605C136.225 153.526 136.865 154.593 137.078 157.154C137.292 159.715 137.932 159.501 139.212 162.062C140.493 164.623 138.145 165.69 137.932 166.971C137.718 168.251 138.785 169.532 140.066 169.959C141.09 170.3 141.204 169.247 141.133 168.678C140.848 168.465 140.237 167.824 140.066 166.971C139.853 165.904 141.773 165.69 144.334 165.69C146.895 165.69 147.535 161.636 148.176 159.501C148.816 157.367 149.669 158.008 150.523 158.221C151.377 158.434 151.59 159.288 152.017 160.995C152.444 162.703 153.297 165.69 155.432 166.971C157.566 168.251 159.7 166.331 160.98 165.69C162.261 165.05 163.755 159.501 165.249 157.154C166.742 154.806 168.663 152.672 170.584 148.191Z" fill="#EABA54" fill-opacity="0.63" stroke="#9F6711" stroke-opacity="0.04" stroke-width="0.426823"/>
<path d="M103.926 143.031C106.245 144.332 109.637 143.573 111.042 143.031C110.251 143.573 108.354 144.712 107.089 144.929C105.508 145.2 102.081 144.657 98.9188 141.404C95.7562 138.15 97.0739 131.101 95.2291 127.848C93.3842 124.594 89.9581 126.492 91.2758 125.408C92.33 124.54 93.9992 125.046 94.702 125.408C96.3711 126.311 99.5513 128.715 98.9188 131.101C98.1281 134.084 101.027 141.404 103.926 143.031Z" fill="#EEDA95" fill-opacity="0.41" stroke="#9F6711" stroke-opacity="0.02" stroke-width="0.426823"/>
<path d="M85.3393 73.2783C87.0456 70.9402 94.937 68.7071 98.6694 67.8828C100.376 67.4707 105.068 68.0108 107.201 68.3324C104.801 68.857 99.3092 70.4007 96.5366 72.379C93.7639 74.3573 92.9481 80.0975 92.8867 82.7203C91.3186 87.0092 82.3009 91.4201 75.2085 94.4104C67.7436 97.5577 65.6108 112.395 66.6772 118.24C67.7436 124.085 76.5415 128.132 75.2085 127.907C73.8755 127.682 65.8774 126.558 60.5454 124.085C55.2134 121.612 52.0141 114.868 51.7475 109.023C51.4809 103.178 52.814 100.93 54.6802 96.8833C56.5464 92.8367 64.5444 88.5653 68.5434 86.9917C71.7426 85.7327 78.5854 81.821 81.6069 80.0226C82.1401 78.7486 83.6331 75.6163 85.3393 73.2783Z" fill="#EECA75"/>
<path d="M93.0708 82.0458C93.0308 82.2702 92.969 82.4951 92.8867 82.7203M92.8867 82.7203C91.3186 87.0092 82.3009 91.4201 75.2085 94.4104C67.7436 97.5577 65.6108 112.395 66.6772 118.24C67.7436 124.085 76.5415 128.132 75.2085 127.907C73.8755 127.682 65.8774 126.558 60.5454 124.085C55.2134 121.612 52.0141 114.868 51.7475 109.023C51.4809 103.178 52.814 100.93 54.6802 96.8833C56.5464 92.8367 64.5444 88.5653 68.5434 86.9917C71.7426 85.7327 78.5854 81.821 81.6069 80.0226C82.1401 78.7486 83.6331 75.6163 85.3393 73.2783C87.0456 70.9402 94.937 68.7071 98.6694 67.8828C100.376 67.4707 105.068 68.0108 107.201 68.3324C104.801 68.857 99.3092 70.4007 96.5366 72.379C93.7639 74.3573 92.9481 80.0975 92.8867 82.7203Z" stroke="black" stroke-opacity="0.02" stroke-width="0.426823"/>
<path d="M135.137 105.977C136.359 104.961 138.706 102.208 138.315 99.325C137.826 95.7218 135.382 91.5643 132.693 91.2871C130.004 91.0099 126.581 94.6131 118.27 92.9501C112.216 91.7387 106.648 87.065 104.04 84.2856C103.792 84.0047 103.564 83.7503 103.359 83.5264C103.556 83.7578 103.783 84.0126 104.04 84.2856C106.445 87.0181 110.63 92.2548 112.403 96.2761C114.848 101.82 117.781 106.531 116.07 112.629C114.359 118.727 117.781 105.977 123.159 102.651C128.537 99.325 135.137 99.325 132.693 102.651C130.737 105.312 128.781 107.64 128.048 108.472L135.137 105.977Z" fill="#EECA75"/>
<path d="M135.137 105.977C136.359 104.961 138.706 102.208 138.315 99.325C137.826 95.7218 135.382 91.5643 132.693 91.2871C130.004 91.0099 126.581 94.6131 118.27 92.9501C111.621 91.6197 105.559 86.1133 103.359 83.5264C105.559 85.9285 110.448 91.8414 112.403 96.2761C114.848 101.82 117.781 106.531 116.07 112.629C114.359 118.727 117.781 105.977 123.159 102.651C128.537 99.325 135.137 99.325 132.693 102.651C130.737 105.312 128.781 107.64 128.048 108.472L135.137 105.977Z" stroke="#9F6711" stroke-opacity="0.02" stroke-width="0.426823"/>
<path d="M121.285 154.166C123.846 155.361 126.763 154.664 127.901 154.166C127.474 154.735 126.194 156.001 124.486 156.514C122.779 157.026 120.787 156.3 120.005 155.873C118.795 155.091 116.163 152.971 115.31 150.751C114.456 148.532 114.954 145.701 115.31 144.562C115.381 145.416 115.694 147.593 116.377 149.471C117.23 151.818 118.084 152.672 121.285 154.166Z" fill="#EECA75" stroke="#9F6711" stroke-opacity="0.01" stroke-width="0.426823"/>
<path d="M155.645 130.095C157.182 129.242 158.988 129.74 159.7 130.095L160.98 131.589C159.913 131.732 156.925 132.571 153.511 134.79C149.243 137.565 145.828 144.821 143.267 148.449C141.218 151.351 141.418 158.195 141.773 161.253C141.204 160.756 139.981 159.162 139.639 156.772C139.212 153.784 140.279 151.223 141.773 147.168C143.267 143.113 144.974 142.046 148.602 137.351C152.23 132.656 153.724 131.162 155.645 130.095Z" fill="#EECA75" stroke="#9F6711" stroke-opacity="0.01" stroke-width="0.426823"/>
<path d="M163.713 141.085C165.409 138.995 170.956 136.557 173.518 135.599H177.758C179.878 135.599 181.115 136.296 181.468 136.644C181.026 136.731 179.136 137.167 175.108 138.212C170.073 139.518 166.098 145.004 161.593 151.535C157.989 156.76 158.502 163.291 159.208 165.904C158.237 165.904 155.816 165.433 153.909 163.552C151.524 161.201 153.644 157.805 156.293 151.535C158.943 145.265 161.593 143.698 163.713 141.085Z" fill="#EECA75" stroke="#9F6711" stroke-opacity="0.01" stroke-width="0.426823"/>
<path d="M178.974 146.755C181.012 144.613 185.296 142.739 187.183 142.069C188.315 141.628 190.674 143.447 191.712 144.412C191.24 144.301 189.9 144.144 188.315 144.412C186.334 144.747 181.239 149.767 176.144 156.125C172.068 161.212 166.898 170.739 164.822 174.867C164.822 174.309 165.161 171.989 166.52 167.17C168.218 161.146 168.785 161.48 172.181 156.125C174.898 151.842 177.842 148.093 178.974 146.755Z" fill="#EECA75" stroke="#9F6711" stroke-opacity="0.01" stroke-width="0.426823"/>
<path d="M138.698 112.663C142.697 111.369 147.251 108.35 149.029 107.002V107.811C148.695 108.35 147.296 109.913 144.363 111.854C140.697 114.28 135.698 115.628 135.032 116.167C134.365 116.707 131.699 120.75 130.366 124.524C129.033 128.298 122.034 134.768 120.035 138.272C118.435 141.076 119.368 145.91 120.035 147.977C119.59 146.629 118.502 143.233 117.702 140.429C116.702 136.925 118.702 133.959 122.034 131.263C125.367 128.568 125.034 125.872 128.033 120.75C131.033 115.628 133.699 114.28 138.698 112.663Z" fill="#EECA75"/>
<path d="M268.967 195.568L304.82 216.696H303.753H303.112C302.757 216.838 301.917 217.165 301.405 217.336C300.765 217.549 299.271 218.83 298.844 219.043C298.417 219.257 296.497 220.964 295.856 221.604L292.655 224.805C292.869 224.023 293.295 222.159 293.295 220.964C293.295 219.47 292.442 214.988 289.881 211.574C287.832 208.842 271.527 197.773 263.631 192.58L268.967 195.568Z" fill="#F0C178" stroke="black" stroke-opacity="0.01" stroke-width="0.426823"/>
<path d="M138.787 103.377C141.01 101.794 146.617 93.6484 149.142 89.7736L151.163 87.7949C151.163 88.4545 149.142 92.9889 149.142 92.9889C147.122 96.2042 138.787 105.85 135.504 109.065C132.22 112.281 124.391 115.743 114.793 124.647C105.195 133.551 102.922 141.466 99.8913 150.864C97.4666 158.383 96.3553 161.747 96.1028 162.489V160.263C96.7763 156.965 98.1738 149.826 98.3759 147.649C98.6285 144.928 101.407 139.982 104.185 135.035C106.963 130.089 111.257 124.153 114.793 121.432C118.329 118.711 119.592 115.496 125.653 113.27C131.715 111.044 136.009 105.355 138.787 103.377Z" fill="#B6863D" stroke="black" stroke-opacity="0.01" stroke-width="0.426823"/>
<path d="M159.915 120.905L169.959 109.99L170.013 112.537C169.104 114.085 165.07 119.267 156.204 127.609C145.123 138.037 142.947 144.453 139.958 148.848C137.566 152.364 129.074 160.546 125.127 164.197C125.195 163.346 125.531 161.436 126.335 160.604C127.341 159.563 129.598 156.967 131.871 155.135C134.144 153.303 138.133 147.613 141.609 141.933C145.085 136.254 149.09 131.328 152.61 127.685C155.425 124.772 158.653 121.951 159.915 120.905Z" fill="#B5863D" stroke="black" stroke-opacity="0.01" stroke-width="0.426823"/>
<path d="M182.108 141.284C184.156 138.636 186.803 136.107 187.87 135.173H189.15L188.51 136.191C187.443 136.446 183.815 141.284 181.467 144.34C179.12 147.396 174.425 152.488 171.65 156.053C168.876 159.618 169.303 161.655 168.449 163.947C167.596 166.239 162.474 174.387 161.407 175.66C160.553 176.679 157.067 178.971 155.431 179.989C156.427 179.225 159.23 176.577 162.474 172.095C166.529 166.493 167.809 161.655 169.303 158.09C170.797 154.525 172.504 152.743 175.278 150.197C178.053 147.65 179.547 144.594 182.108 141.284Z" fill="#B6863D" stroke="black" stroke-opacity="0.01" stroke-width="0.426823"/>
<path d="M109.121 82.0331C111.682 80.4966 118.297 76.1288 121.285 74.1369L126.834 72.8564C124.984 73.9946 119.791 77.21 113.816 80.9661C106.346 85.6611 101.651 92.2769 99.5172 94.6244C97.3831 96.972 89.0601 104.228 85.4321 107.216C81.8041 110.203 77.5358 118.527 74.9749 129.411C72.9261 138.118 68.0034 143.567 65.7982 145.203C66.4384 143.78 68.2311 139.569 70.2798 134.106C72.8408 127.276 72.8408 123.008 74.9749 118.527C77.109 114.045 80.9504 107.856 85.4321 104.228C89.9137 100.6 96.5295 93.7708 99.5172 90.5696C102.505 87.3684 105.92 83.9539 109.121 82.0331Z" fill="#B6863D" stroke="black" stroke-opacity="0.01" stroke-width="0.426823"/>
<path d="M168.45 133.039C170.328 131.331 177.769 127.206 181.255 125.356L182.535 125.783C181.895 126.281 179.846 127.746 176.773 129.624C172.932 131.972 170.797 134.959 168.45 136.027C166.102 137.094 159.913 147.337 156.499 152.673C153.767 156.941 148.816 165.975 146.682 169.959C140.066 180.843 140.706 178.069 141.56 177.428C142.414 176.788 142.414 174.441 145.828 169.319C149.243 164.197 150.95 158.221 153.298 154.167C155.645 150.112 158.633 145.203 161.407 140.935C164.182 136.667 166.102 135.173 168.45 133.039Z" fill="#B5863D" stroke="black" stroke-opacity="0.01" stroke-width="0.426823"/>
<path d="M179.547 173.373L285.399 237.609L285.186 237.823L284.546 239.957L284.332 241.451V242.518L284.759 244.012L279.21 240.811L263.204 230.994L248.906 222.244L216.681 202.823L205.797 196.208L174.852 177.427C175.208 177.143 176.047 176.446 176.559 175.933C177.072 175.421 178.765 174.013 179.547 173.373Z" fill="#F0C178"/>
<path d="M83.6052 113.085C85.1418 111.207 86.8064 112.302 87.4466 113.085V107.322C87.4466 105.9 86.6784 102.713 83.6052 101.347C79.7638 99.6396 76.9895 98.7859 74.8553 99.2128C72.7212 99.6396 74.8553 103.054 67.3859 107.322C61.4104 110.737 57.7824 110.452 56.7154 109.883L44.1241 130.157C43.6972 132.576 43.0997 138.481 44.1241 142.749C45.1484 147.017 48.25 148.226 49.6728 148.297L51.8069 153.419C52.2337 158.541 53.813 169.724 56.7154 173.48C59.6178 177.236 70.018 184.72 74.8553 187.992C82.3248 193.114 97.0502 192.687 109.001 205.919C120.952 219.15 115.404 223.845 109.001 233.235C102.599 242.625 81.0443 247.747 73.1481 241.772C65.2518 235.796 38.1485 230.674 20.222 223.845C2.29536 217.016 -56.6063 225.552 -73.6792 241.772C-90.7521 257.991 -81.362 269.942 -68.5573 269.942C-55.7526 269.942 -45.5089 275.064 -24.1677 269.942C-2.82651 264.82 -9.65569 279.332 -0.265564 282.747C9.12454 286.161 -13.9239 304.942 -24.1677 315.185C-34.4114 325.429 -30.9969 330.551 -24.1677 332.258C-17.3385 333.966 -10.5093 331.405 -9.65569 322.868C-8.80203 314.332 -2.82651 309.21 6.5636 295.551C15.9537 281.893 37.2949 287.869 56.7154 295.551C76.1358 303.234 115.404 317.746 155.952 315.185C196.5 312.624 204.61 305.795 210.585 287.869C216.561 269.942 133.757 271.649 126.928 257.137C121.464 245.528 129.204 242.056 133.757 241.772C143.147 235.796 144.428 229.821 143.574 219.15C142.891 210.614 124.509 197.951 115.404 192.687C111.989 186.199 81.9691 177.179 67.3859 173.48C59.9165 169.639 56.7154 163.236 56.7154 158.328C56.7154 154.401 61.8372 148.155 64.3982 145.523C68.0262 143.602 67.5993 144.029 69.0932 137.413C70.5871 130.798 70.1603 132.932 73.1481 130.157C76.1358 127.383 72.2944 123.115 74.8553 121.194C77.4163 119.273 78.6968 121.621 81.0443 120.127C83.3918 118.633 81.6845 115.432 83.6052 113.085Z" fill="#FFCD4D" fill-opacity="0.63" stroke="#9F6711" stroke-opacity="0.04" stroke-width="0.426823"/>
</g>
<rect x="0.5" y="0.5" width="275" height="275" rx="137.5" stroke="#F7931A" stroke-opacity="0.44"/>
<defs>
<clipPath id="clip0_641_951">
<rect width="276" height="276" rx="138" fill="white"/>
</clipPath>
</defs>
</svg>
