<?xml version="1.0" encoding="UTF-8"?><svg id="Layer_2" xmlns="http://www.w3.org/2000/svg" viewBox="0 0 156.19 158.21"><defs><style>.cls-1,.cls-2,.cls-3{stroke-width:0px;}.cls-2{fill:#f5da82;}.cls-3{fill:#f2be00;}</style></defs><g id="objects"><path class="cls-2" d="M33.78,12.49c-3.31.04-3.95-.75-4.08-4.66-.1-3.03,2.04-2.51,3.78-2.5,10.01.09,20.02.35,30.03.34,22.71-.03,45.41-.19,68.12-.29-.17,1.9-.45,3.81-.47,5.71-.02,1.64-.59,2.2-2.25,2.09-26.81-1.8-53.64-.31-80.46-.76-4.89-.08-9.78.02-14.67.07Z"/><path class="cls-3" d="M117.88,15.18c1.83.01,4.41-.69,4.47,2.55.08,4.21-1.04,5.63-4.71,5.61-24.44-.12-48.88-.28-73.32-.46-3.03-.02-4.11-1.54-4.03-5.27.06-2.88,2.25-2.45,3.97-2.46,12.42-.05,24.83-.02,37.25-.02v.02c12.13,0,24.25-.04,36.38.04Z"/><path class="cls-2" d="M154.06,77.1c-1.41-11.7-6.27-22.12-14.26-30.69-4.82-5.17-10.79-9.25-16.14-13.95-1.15-1.01-2.52-2.54-2.57-3.88-.11-2.97-1.67-3.18-3.94-3.18-11.85.04-23.69.02-35.54.02v.16c-12.14,0-24.27.01-36.41-.01-2.06,0-3.44.29-3.59,2.93-.08,1.3-1.22,2.8-2.3,3.74-5.21,4.56-10.6,8.91-15.83,13.44-1.37,1.18-2.51,2.66-3.59,4.12-9.26,12.56-12.53,26.76-12.16,42.2.23,9.61,3.17,17.96,9.23,25.22,4.5,5.39,9.4,10.45,14.03,15.74,5.38,6.16,10.95,12.21,14.23,19.87.85,1.99,2.45,2.27,4.25,2.27,21.38.07,42.77.12,64.15.21,2.01,0,3.07-.89,3.98-2.65,1.53-2.98,3.09-6.03,5.17-8.62,5.12-6.37,10.48-12.56,15.88-18.7,5.53-6.29,11.4-12.27,14.2-20.5,3.11-9.16,2.34-18.48,1.23-27.74ZM140.89,104.83c-4.98,9-10.9,17.26-18.8,23.96-5.31,4.51-11.44,7.43-18.2,9.05-3.84.92-7.73,1.64-11.55,2.63-6.59,1.69-13.14,1.76-19.71-.03-6.58-1.79-13.39-3.02-19.69-5.53-11.31-4.51-18.48-13.84-25.05-23.62-.54-.8-.98-1.66-1.52-2.45-5.48-7.9-7.3-16.64-6.05-26.1.78-5.92,1.68-11.82,2.3-17.75.33-3.17,1.67-4.48,4.92-4.61,12.6-.5,25.19-1.2,43.85-2.12,10.29.23,26.64.5,42.98.98,8.08.24,16.14.9,24.21,1.3,2.06.1,3.24.92,3.48,3.03.92,8.22,1.93,16.43,2.78,24.66.61,5.96-1.08,11.41-3.95,16.6Z"/><path class="cls-3" d="M137.04,102.64c-4.39,7.73-9.48,14.96-15.92,21.18-5.31,5.14-11.47,8.73-18.72,10.36-.56.13-1.15.2-1.69.4-13.43,4.83-26.69,3.1-39.98-.8-9.5-2.79-16.68-8.69-22.63-16.22-3.51-4.45-6.58-9.26-9.67-14.02-3.56-5.49-4.39-11.64-3.8-18.03.57-6.23,1.22-12.46,1.75-18.7.18-2.14,1.19-3.11,3.33-3.06,2.31.05,4.62.01,6.94.01,0-.06,0-.12,0-.18,13.66-.53,27.31-1.49,40.97-1.48,14.33,0,28.66.97,42.99,1.45,4.72.16,9.44.22,14.15.17,2.51-.02,3.68.96,3.87,3.5.53,7.39,1.2,14.78,1.76,22.17.36,4.78-1.04,9.18-3.35,13.26Z"/><path class="cls-1" d="M156,84.18c-.8-9.69-2.57-18.94-6.55-27.94-5.31-12.03-15.15-19.77-24.76-27.71-3-2.48-4.43-4.77-3.92-8.46.21-1.53.05-3.17.58-4.56.35-.93,1.76-2.28,2.43-2.14,3.28.66,5.05-.92,6.9-3.3,1.84-2.37,2.26-5.56.28-8.41-.86.54-1.72,1.09-2.59,1.63,1-1.86-.02-2.74-1.68-3.03-1.41-.25-2.88-.24-4.32-.25-21.1-.01-42.21-.05-63.31.01-10.02.03-20.04.25-30.05.46-1.1.02-3.03.27-3.16.77-.67,2.63-1.51,5.49-1.01,8.02.29,1.45,2.87,3.05,4.68,3.48,5.4,1.26,5.45,1.05,5.76,6.66.07,1.25.32,2.58,0,3.74-.39,1.38-1.04,2.92-2.07,3.83-5.24,4.67-10.7,9.1-15.95,13.76-1.71,1.52-3.21,3.34-4.52,5.23C5.35,56.69,1.13,68.45.23,81.52c-.95,13.75.86,26.58,10.15,37.43,4.95,5.78,10.33,11.21,15.03,17.18,4.27,5.41,8.22,11.13,11.67,17.09,2.48,4.27,2.62,5.02,7.65,4.99,22.55-.14,45.09-.37,67.64-.47,3.24-.01,5.08-1.33,6.46-4.23,1.6-3.36,3.4-6.74,5.71-9.64,5.08-6.41,10.21-12.83,15.9-18.69,11.17-11.5,16.91-24.76,15.57-41ZM30.5,10.44c-3.31.04-3.95-.75-4.08-4.66-.1-3.03,2.04-2.51,3.78-2.5,10.01.09,20.02.35,30.03.34,22.71-.03,45.41-.19,68.12-.29-.17,1.9-.45,3.81-.47,5.71-.02,1.64-.59,2.2-2.25,2.09-26.81-1.8-53.64-.31-80.46-.76-4.89-.08-9.78.02-14.67.07ZM114.6,13.13c1.83.01,4.41-.69,4.47,2.55.08,4.21-1.04,5.63-4.71,5.61-24.44-.12-48.88-.28-73.32-.46-3.03-.02-4.11-1.54-4.03-5.27.06-2.88,2.25-2.45,3.97-2.46,12.42-.05,24.83-.02,37.25-.02v.02c12.13,0,24.25-.04,36.38.04ZM149.54,102.79c-2.8,8.22-8.67,14.21-14.2,20.5-5.4,6.14-10.76,12.33-15.88,18.7-2.08,2.59-3.64,5.64-5.17,8.62-.9,1.76-1.96,2.66-3.98,2.65-21.38-.09-42.77-.14-64.15-.21-1.79,0-3.39-.28-4.25-2.27-3.28-7.66-8.85-13.71-14.23-19.87-4.62-5.29-9.52-10.35-14.03-15.74-6.06-7.26-8.99-15.61-9.23-25.22-.38-15.44,2.9-29.63,12.16-42.2,1.08-1.46,2.23-2.94,3.59-4.12,5.24-4.53,10.62-8.88,15.83-13.44,1.07-.94,2.22-2.44,2.3-3.74.15-2.64,1.54-2.93,3.59-2.93,12.14.02,24.27.01,36.41.01,0-.05,0-.1,0-.16,11.85,0,23.7.02,35.54-.02,2.27,0,3.82.21,3.94,3.18.05,1.34,1.42,2.86,2.57,3.88,5.34,4.7,11.31,8.78,16.14,13.95,8,8.56,12.86,18.99,14.26,30.69,1.11,9.26,1.89,18.58-1.23,27.74Z"/><path class="cls-1" d="M138.77,61.51c-.24-2.11-1.42-2.93-3.48-3.03-8.07-.4-16.14-1.06-24.21-1.3-16.34-.48-32.69-.76-42.98-.98-18.66.93-31.25,1.63-43.85,2.12-3.24.13-4.59,1.44-4.92,4.61-.61,5.93-1.51,11.84-2.3,17.75-1.25,9.46.57,18.2,6.05,26.1.55.79.99,1.66,1.52,2.45,6.56,9.77,13.73,19.1,25.05,23.62,6.3,2.51,13.11,3.74,19.69,5.53,6.56,1.79,13.12,1.72,19.71.03,3.82-.98,7.71-1.71,11.55-2.63,6.76-1.62,12.89-4.54,18.2-9.05,7.9-6.7,13.81-14.96,18.8-23.96,2.87-5.19,4.56-10.64,3.95-16.6-.85-8.23-1.86-16.44-2.78-24.66ZM133.75,100.58c-4.39,7.73-9.48,14.96-15.92,21.18-5.31,5.14-11.47,8.73-18.72,10.36-.56.13-1.15.2-1.69.4-13.43,4.83-26.69,3.1-39.98-.8-9.5-2.79-16.68-8.69-22.63-16.22-3.51-4.45-6.58-9.26-9.67-14.02-3.56-5.49-4.39-11.64-3.8-18.03.57-6.23,1.22-12.46,1.75-18.7.18-2.14,1.19-3.11,3.33-3.06,2.31.05,4.62.01,6.94.01,0-.06,0-.12,0-.18,13.66-.53,27.31-1.49,40.97-1.48,14.33,0,28.66.97,42.99,1.45,4.72.16,9.44.22,14.15.17,2.51-.02,3.68.96,3.87,3.5.53,7.39,1.2,14.78,1.76,22.17.36,4.78-1.04,9.18-3.35,13.26Z"/></g></svg>