<?xml version="1.0" encoding="UTF-8"?><svg id="Layer_2" xmlns="http://www.w3.org/2000/svg" viewBox="0 0 72.93 85.41"><defs><style>.cls-1,.cls-2{stroke-width:0px;}.cls-2{fill:#f5da82;}</style></defs><g id="objects"><path class="cls-2" d="M41.76,83.36c-.67.49-2.29.45-3.04-.03-10.13-6.49-20.22-13.05-30.21-19.75-1.03-.69-1.86-2.28-2.01-3.53-.35-3.15-.21-6.35-.35-9.52-.3-6.73-.58-13.47-1.03-20.2-.16-2.44.35-4.24,2.5-5.66,8.28-5.45,16.51-10.98,24.73-16.52,2.61-1.76,4.8-1.51,7.66.05,7.61,4.13,15.42,7.93,23.35,11.41,4.43,1.94,6.6,4.61,5.91,9.5-.23,1.61-.04,3.27-.04,4.91-.13.01-.25.02-.38.03.7,7.67,1.29,15.35,2.16,23,.32,2.8-.32,4.73-2.64,6.44-8.92,6.57-17.7,13.31-26.63,19.87Z"/><path class="cls-1" d="M71.34,60.22c1.12-1.08,1.7-3.34,1.57-4.98-.82-10.56-2.14-21.08-2.79-31.65-.31-5.05-2.61-7.7-7.02-9.71-8.58-3.9-17.03-8.11-25.37-12.51-2.76-1.46-5.15-2.04-7.8-.32C21.76,6.33,13.64,11.65,5.48,16.91,1.08,19.76-1.1,23.59.55,31.34c0,6.05.16,14.52-.06,22.99-.12,4.61,1.44,7.75,5.39,10.29,9.79,6.3,19.36,12.95,29.02,19.45,2.85,1.92,4.63,1.78,7.63-.42,4.73-3.48,9.64-6.74,14.2-10.44,5.06-4.1,9.93-8.46,14.61-12.99ZM39.39,80.5c-.67.49-2.29.45-3.04-.03-10.13-6.49-20.22-13.05-30.21-19.75-1.03-.69-1.86-2.28-2.01-3.53-.35-3.15-.21-6.35-.35-9.52-.3-6.73-.58-13.47-1.03-20.2-.16-2.44.35-4.24,2.5-5.66,8.28-5.45,16.51-10.98,24.73-16.53,2.61-1.76,4.8-1.51,7.66.05,7.61,4.13,15.42,7.93,23.35,11.41,4.43,1.94,6.6,4.61,5.91,9.5-.23,1.61-.04,3.27-.04,4.91-.13.01-.25.02-.38.03.7,7.67,1.29,15.35,2.16,23,.32,2.8-.32,4.73-2.64,6.44-8.92,6.57-17.7,13.31-26.63,19.87Z"/></g></svg>