<svg width="32" height="32" viewBox="0 0 32 32" fill="none" xmlns="http://www.w3.org/2000/svg">
<rect width="32" height="32" rx="16" fill="#2F1F0E"/>
<path d="M20.6085 22.2549C20.6084 23.8307 19.3308 25.1084 17.755 25.1084H14.463C12.8872 25.1084 11.6096 23.8307 11.6095 22.2549H20.6085ZM23.6818 18.7441C23.6816 20.3198 22.404 21.5967 20.8282 21.5967H11.6095C10.034 21.5964 8.75712 20.3197 8.75696 18.7441H23.6818ZM23.0236 13.9141C24.1145 13.9141 24.9991 14.7987 24.9991 15.8896C24.9991 16.9806 24.1145 17.8652 23.0236 17.8652H8.97668C7.88572 17.8652 7.0011 16.9806 7.0011 15.8896C7.0011 14.7987 7.88572 13.9141 8.97668 13.9141H23.0236ZM20.6095 10.4023C22.1851 10.4026 23.462 11.6802 23.462 13.2559H8.53723C8.53723 11.68 9.81491 10.4023 11.3907 10.4023H20.6095ZM17.5353 6.8916C19.1111 6.8916 20.3888 8.16928 20.3888 9.74512H11.6095C11.6095 8.16928 12.8872 6.8916 14.463 6.8916H17.5353Z" fill="#FFCD4D"/>
</svg>
