<svg width="25" height="23" viewBox="0 0 25 23" fill="none" xmlns="http://www.w3.org/2000/svg">
<g filter="url(#filter0_d_523_2360)">
<path d="M13.2742 0.097168C12.6292 0.097168 12.0412 0.437168 10.8672 1.11417L4.43623 4.82017C3.32885 5.44579 2.40602 6.35234 1.76081 7.44842C1.1156 8.54449 0.770812 9.79132 0.76123 11.0632L0.76123 11.2992C0.770883 12.5694 1.11487 13.8146 1.7586 14.9097C2.40232 16.0047 3.32308 16.911 4.42823 17.5372L8.45123 19.8602C10.8052 21.2202 11.9822 21.9022 13.2752 21.9022C14.5672 21.9032 15.7452 21.2242 18.1002 19.8642L22.3512 17.4112C23.5282 16.7312 24.1152 16.3912 24.4382 15.8322C24.7612 15.2722 24.7622 14.5922 24.7612 13.2322V10.6022C24.7614 10.4197 24.7136 10.2404 24.6226 10.0823C24.5316 9.92411 24.4006 9.79269 24.2427 9.70119C24.0849 9.6097 23.9057 9.56134 23.7233 9.56099C23.5408 9.56063 23.3615 9.60829 23.2032 9.69917L14.4752 14.7232C13.8882 15.0602 13.5952 15.2302 13.2742 15.2302C12.9512 15.2302 12.6582 15.0622 12.0702 14.7242L6.16623 11.3312C5.86923 11.1602 5.72023 11.0752 5.60123 11.0602C5.4698 11.0433 5.33649 11.0702 5.22189 11.1368C5.10729 11.2033 5.01779 11.3057 4.96723 11.4282C4.92223 11.5392 4.92223 11.7102 4.92423 12.0532C4.92623 12.3052 4.92423 12.4312 4.94923 12.5472C5.00223 12.8062 5.13823 13.0402 5.33623 13.2142C5.42523 13.2912 5.53423 13.3542 5.75223 13.4802L12.0672 17.1302C12.6562 17.4702 12.9512 17.6402 13.2742 17.6402C13.5982 17.6402 13.8912 17.4702 14.4802 17.1312L22.2202 12.6622C22.4222 12.5462 22.5222 12.4902 22.5972 12.5322C22.6722 12.5762 22.6722 12.6922 22.6722 12.9242V14.1172C22.6722 14.4572 22.6732 14.6272 22.5922 14.7662C22.5122 14.9062 22.3652 14.9902 22.0702 15.1602L15.6882 18.8452C14.5102 19.5252 13.9212 19.8652 13.2752 19.8652C12.6292 19.8652 12.0392 19.5252 10.8632 18.8432L4.89323 15.3912L4.85023 15.3662C4.23538 15.0061 3.7248 14.4922 3.36871 13.8751C3.01261 13.2579 2.82325 12.5587 2.81923 11.8462V10.7002C2.81952 10.3065 2.92311 9.91974 3.11964 9.57861C3.31618 9.23748 3.59879 8.95389 3.93923 8.75617C4.24035 8.58176 4.58212 8.48984 4.9301 8.48967C5.27807 8.48949 5.61994 8.58107 5.92123 8.75517L10.8672 11.6132C12.0412 12.2922 12.6292 12.6322 13.2742 12.6332C13.9192 12.6332 14.5072 12.2932 15.6842 11.6162L23.1662 7.31017C23.3324 7.2145 23.4704 7.07674 23.5664 6.91075C23.6624 6.74475 23.7129 6.5564 23.7129 6.36467C23.7129 6.17293 23.6624 5.98458 23.5664 5.81859C23.4704 5.6526 23.3324 5.51483 23.1662 5.41917L15.6812 1.11017C14.5062 0.435168 13.9192 0.097168 13.2752 0.097168H13.2742Z" fill="black"/>
</g>
<defs>
</defs>
</svg>
