<svg width="22" height="17" viewBox="0 0 22 17" fill="none" xmlns="http://www.w3.org/2000/svg">
<path d="M21.2212 2C20.4512 2.35 19.6212 2.58 18.7612 2.69C19.6412 2.16 20.3212 1.32 20.6412 0.31C19.8112 0.81 18.8912 1.16 17.9212 1.36C17.1312 0.5 16.0212 0 14.7612 0C12.4112 0 10.4912 1.92 10.4912 4.29C10.4912 4.63 10.5312 4.96 10.6012 5.27C7.04124 5.09 3.87124 3.38 1.76124 0.79C1.39124 1.42 1.18124 2.16 1.18124 2.94C1.18124 4.43 1.93124 5.75 3.09124 6.5C2.38124 6.5 1.72124 6.3 1.14124 6V6.03C1.14124 8.11 2.62124 9.85 4.58124 10.24C3.95197 10.4122 3.29133 10.4362 2.65124 10.31C2.92285 11.1625 3.45478 11.9084 4.17226 12.4429C4.88974 12.9775 5.75669 13.2737 6.65124 13.29C5.13487 14.4904 3.25524 15.1393 1.32124 15.13C0.981239 15.13 0.641239 15.11 0.301239 15.07C2.20124 16.29 4.46124 17 6.88124 17C14.7612 17 19.0912 10.46 19.0912 4.79C19.0912 4.6 19.0912 4.42 19.0812 4.23C19.9212 3.63 20.6412 2.87 21.2212 2Z" fill="black"/>
</svg>
