<svg width="25" height="24" viewBox="0 0 25 24" fill="none" xmlns="http://www.w3.org/2000/svg">
<path d="M20.0312 5.33005C18.7012 4.71005 17.2612 4.26005 15.7612 4.00005C15.7481 3.99963 15.735 4.00209 15.7229 4.00728C15.7108 4.01246 15.7 4.02023 15.6912 4.03005C15.5112 4.36005 15.3012 4.79005 15.1612 5.12005C13.5702 4.88005 11.9522 4.88005 10.3612 5.12005C10.2212 4.78005 10.0112 4.36005 9.82123 4.03005C9.81123 4.01005 9.78123 4.00005 9.75123 4.00005C8.25123 4.26005 6.82123 4.71005 5.48123 5.33005C5.47123 5.33005 5.46123 5.34005 5.45123 5.35005C2.73123 9.42005 1.98123 13.38 2.35123 17.3C2.35123 17.32 2.36123 17.34 2.38123 17.35C4.18123 18.67 5.91123 19.47 7.62123 20C7.65123 20.01 7.68123 20 7.69123 19.98C8.09123 19.43 8.45123 18.85 8.76123 18.24C8.78123 18.2 8.76123 18.16 8.72123 18.15C8.15123 17.93 7.61123 17.67 7.08123 17.37C7.04123 17.35 7.04123 17.29 7.07123 17.26C7.18123 17.18 7.29123 17.09 7.40123 17.01C7.42123 16.99 7.45123 16.99 7.47123 17C10.9112 18.57 14.6212 18.57 18.0212 17C18.0412 16.99 18.0712 16.99 18.0912 17.01C18.2012 17.1 18.3112 17.18 18.4212 17.27C18.4612 17.3 18.4612 17.36 18.4112 17.38C17.8912 17.69 17.3412 17.94 16.7712 18.16C16.7312 18.17 16.7212 18.22 16.7312 18.25C17.0512 18.86 17.4112 19.44 17.8012 19.99C17.8312 20 17.8612 20.01 17.8912 20C19.6112 19.47 21.3412 18.67 23.1412 17.35C23.1612 17.34 23.1712 17.32 23.1712 17.3C23.6112 12.77 22.4412 8.84005 20.0712 5.35005C20.0612 5.34005 20.0512 5.33005 20.0312 5.33005ZM9.28123 14.91C8.25123 14.91 7.39123 13.96 7.39123 12.79C7.39123 11.62 8.23123 10.67 9.28123 10.67C10.3412 10.67 11.1812 11.63 11.1712 12.79C11.1712 13.96 10.3312 14.91 9.28123 14.91ZM16.2512 14.91C15.2212 14.91 14.3612 13.96 14.3612 12.79C14.3612 11.62 15.2012 10.67 16.2512 10.67C17.3112 10.67 18.1512 11.63 18.1412 12.79C18.1412 13.96 17.3112 14.91 16.2512 14.91Z" fill="black"/>
</svg>
